<mxfile host="app.diagrams.net" modified="2021-09-27T16:04:04.981Z" agent="5.0 (Macintosh; Intel Mac OS X 10_15_7) AppleWebKit/537.36 (KHTML, like Gecko) Chrome/93.0.4577.63 Safari/537.36" etag="jOpXIaAsjpp7rdo1aSLK" version="15.3.2" type="github">
  <diagram id="3wz_Bg6Wu5CAwzTQ0kBe" name="Page-1">
    <mxGraphModel dx="1629" dy="903" grid="1" gridSize="10" guides="1" tooltips="1" connect="1" arrows="1" fold="1" page="1" pageScale="1" pageWidth="850" pageHeight="1100" math="0" shadow="0">
      <root>
        <mxCell id="0" />
        <mxCell id="1" parent="0" />
        <mxCell id="N2PFwwYQiUMhbZ82afL--1" value="&lt;font style=&quot;font-size: 16px&quot;&gt;Web Applications VPC&lt;/font&gt;" style="text;html=1;strokeColor=none;fillColor=none;align=center;verticalAlign=middle;whiteSpace=wrap;rounded=0;" parent="1" vertex="1">
          <mxGeometry x="313" y="20" width="225" height="20" as="geometry" />
        </mxCell>
        <mxCell id="N2PFwwYQiUMhbZ82afL--2" value="Region" style="points=[[0,0],[0.25,0],[0.5,0],[0.75,0],[1,0],[1,0.25],[1,0.5],[1,0.75],[1,1],[0.75,1],[0.5,1],[0.25,1],[0,1],[0,0.75],[0,0.5],[0,0.25]];outlineConnect=0;gradientColor=none;html=1;whiteSpace=wrap;fontSize=12;fontStyle=0;shape=mxgraph.aws4.group;grIcon=mxgraph.aws4.group_region;strokeColor=#147EBA;fillColor=none;verticalAlign=top;align=left;spacingLeft=30;fontColor=#147EBA;dashed=1;" parent="1" vertex="1">
          <mxGeometry x="40" y="60" width="610" height="530" as="geometry" />
        </mxCell>
        <mxCell id="N2PFwwYQiUMhbZ82afL--9" style="edgeStyle=orthogonalEdgeStyle;rounded=0;orthogonalLoop=1;jettySize=auto;html=1;exitX=0.5;exitY=1;exitDx=0;exitDy=0;exitPerimeter=0;entryX=0.5;entryY=0;entryDx=0;entryDy=0;entryPerimeter=0;" parent="1" source="N2PFwwYQiUMhbZ82afL--3" target="N2PFwwYQiUMhbZ82afL--4" edge="1">
          <mxGeometry relative="1" as="geometry" />
        </mxCell>
        <mxCell id="N2PFwwYQiUMhbZ82afL--3" value="" style="sketch=0;points=[[0,0,0],[0.25,0,0],[0.5,0,0],[0.75,0,0],[1,0,0],[0,1,0],[0.25,1,0],[0.5,1,0],[0.75,1,0],[1,1,0],[0,0.25,0],[0,0.5,0],[0,0.75,0],[1,0.25,0],[1,0.5,0],[1,0.75,0]];outlineConnect=0;fontColor=#232F3E;gradientColor=#945DF2;gradientDirection=north;fillColor=#5A30B5;strokeColor=#ffffff;dashed=0;verticalLabelPosition=bottom;verticalAlign=top;align=center;html=1;fontSize=12;fontStyle=0;aspect=fixed;shape=mxgraph.aws4.resourceIcon;resIcon=mxgraph.aws4.cloudfront;" parent="1" vertex="1">
          <mxGeometry x="720" y="280" width="38" height="38" as="geometry" />
        </mxCell>
        <mxCell id="N2PFwwYQiUMhbZ82afL--4" value="" style="sketch=0;points=[[0,0,0],[0.25,0,0],[0.5,0,0],[0.75,0,0],[1,0,0],[0,1,0],[0.25,1,0],[0.5,1,0],[0.75,1,0],[1,1,0],[0,0.25,0],[0,0.5,0],[0,0.75,0],[1,0.25,0],[1,0.5,0],[1,0.75,0]];outlineConnect=0;fontColor=#232F3E;gradientColor=#F54749;gradientDirection=north;fillColor=#C7131F;strokeColor=#ffffff;dashed=0;verticalLabelPosition=bottom;verticalAlign=top;align=center;html=1;fontSize=12;fontStyle=0;aspect=fixed;shape=mxgraph.aws4.resourceIcon;resIcon=mxgraph.aws4.waf;" parent="1" vertex="1">
          <mxGeometry x="720" y="380" width="38" height="38" as="geometry" />
        </mxCell>
        <mxCell id="N2PFwwYQiUMhbZ82afL--5" value="CloudFront" style="text;html=1;strokeColor=none;fillColor=none;align=center;verticalAlign=middle;whiteSpace=wrap;rounded=0;" parent="1" vertex="1">
          <mxGeometry x="708" y="260" width="62" height="20" as="geometry" />
        </mxCell>
        <mxCell id="N2PFwwYQiUMhbZ82afL--6" value="WAF&lt;br&gt;Filter incoming traffic by IP" style="text;html=1;strokeColor=none;fillColor=none;align=center;verticalAlign=middle;whiteSpace=wrap;rounded=0;" parent="1" vertex="1">
          <mxGeometry x="679" y="430" width="120" height="20" as="geometry" />
        </mxCell>
        <mxCell id="N2PFwwYQiUMhbZ82afL--10" value="Availability Zone" style="fillColor=none;strokeColor=#147EBA;dashed=1;verticalAlign=top;fontStyle=0;fontColor=#147EBA;" parent="1" vertex="1">
          <mxGeometry x="50" y="90" width="590" height="490" as="geometry" />
        </mxCell>
        <mxCell id="N2PFwwYQiUMhbZ82afL--62" style="edgeStyle=none;rounded=0;orthogonalLoop=1;jettySize=auto;html=1;exitX=1;exitY=0.25;exitDx=0;exitDy=0;shadow=0;" parent="1" source="N2PFwwYQiUMhbZ82afL--11" target="N2PFwwYQiUMhbZ82afL--61" edge="1">
          <mxGeometry relative="1" as="geometry">
            <Array as="points">
              <mxPoint x="690" y="225" />
            </Array>
          </mxGeometry>
        </mxCell>
        <mxCell id="N2PFwwYQiUMhbZ82afL--11" value="VPC" style="points=[[0,0],[0.25,0],[0.5,0],[0.75,0],[1,0],[1,0.25],[1,0.5],[1,0.75],[1,1],[0.75,1],[0.5,1],[0.25,1],[0,1],[0,0.75],[0,0.5],[0,0.25]];outlineConnect=0;gradientColor=none;html=1;whiteSpace=wrap;fontSize=12;fontStyle=0;shape=mxgraph.aws4.group;grIcon=mxgraph.aws4.group_vpc;strokeColor=#248814;fillColor=none;verticalAlign=top;align=left;spacingLeft=30;fontColor=#AAB7B8;dashed=0;" parent="1" vertex="1">
          <mxGeometry x="60" y="110" width="570" height="460" as="geometry" />
        </mxCell>
        <mxCell id="N2PFwwYQiUMhbZ82afL--59" style="edgeStyle=none;rounded=0;orthogonalLoop=1;jettySize=auto;html=1;shadow=0;" parent="1" source="N2PFwwYQiUMhbZ82afL--12" target="N2PFwwYQiUMhbZ82afL--26" edge="1">
          <mxGeometry relative="1" as="geometry" />
        </mxCell>
        <mxCell id="N2PFwwYQiUMhbZ82afL--12" value="" style="sketch=0;outlineConnect=0;fontColor=#232F3E;gradientColor=none;fillColor=#A166FF;strokeColor=none;dashed=0;verticalLabelPosition=bottom;verticalAlign=top;align=center;html=1;fontSize=12;fontStyle=0;aspect=fixed;pointerEvents=1;shape=mxgraph.aws4.internet_gateway;rotation=90;" parent="1" vertex="1">
          <mxGeometry x="620" y="284" width="30" height="30" as="geometry" />
        </mxCell>
        <mxCell id="N2PFwwYQiUMhbZ82afL--15" value="" style="endArrow=classic;html=1;" parent="1" edge="1">
          <mxGeometry width="50" height="50" relative="1" as="geometry">
            <mxPoint x="820" y="299" as="sourcePoint" />
            <mxPoint x="759" y="298.5" as="targetPoint" />
          </mxGeometry>
        </mxCell>
        <mxCell id="N2PFwwYQiUMhbZ82afL--16" value="Web Traffic" style="text;html=1;strokeColor=none;fillColor=none;align=center;verticalAlign=middle;whiteSpace=wrap;rounded=0;" parent="1" vertex="1">
          <mxGeometry x="780" y="270" width="40" height="20" as="geometry" />
        </mxCell>
        <mxCell id="N2PFwwYQiUMhbZ82afL--17" value="Internet Gateway" style="text;html=1;strokeColor=none;fillColor=none;align=center;verticalAlign=middle;whiteSpace=wrap;rounded=0;" parent="1" vertex="1">
          <mxGeometry x="620" y="318" width="40" height="20" as="geometry" />
        </mxCell>
        <mxCell id="N2PFwwYQiUMhbZ82afL--19" value="" style="endArrow=classic;startArrow=classic;html=1;shadow=0;" parent="1" source="N2PFwwYQiUMhbZ82afL--12" edge="1">
          <mxGeometry width="50" height="50" relative="1" as="geometry">
            <mxPoint x="660" y="299" as="sourcePoint" />
            <mxPoint x="720" y="299" as="targetPoint" />
          </mxGeometry>
        </mxCell>
        <mxCell id="N2PFwwYQiUMhbZ82afL--20" style="edgeStyle=none;rounded=0;orthogonalLoop=1;jettySize=auto;html=1;entryX=0;entryY=0.5;entryDx=0;entryDy=0;entryPerimeter=0;shadow=0;" parent="1" source="N2PFwwYQiUMhbZ82afL--3" target="N2PFwwYQiUMhbZ82afL--3" edge="1">
          <mxGeometry relative="1" as="geometry" />
        </mxCell>
        <mxCell id="N2PFwwYQiUMhbZ82afL--21" value="Subnet" style="sketch=0;outlineConnect=0;gradientColor=none;html=1;whiteSpace=wrap;fontSize=12;fontStyle=0;shape=mxgraph.aws4.group;grIcon=mxgraph.aws4.group_subnet;strokeColor=#879196;fillColor=none;verticalAlign=top;align=left;spacingLeft=30;fontColor=#879196;dashed=0;" parent="1" vertex="1">
          <mxGeometry x="70" y="140" width="410" height="180" as="geometry" />
        </mxCell>
        <mxCell id="N2PFwwYQiUMhbZ82afL--22" value="Subnet" style="sketch=0;outlineConnect=0;gradientColor=none;html=1;whiteSpace=wrap;fontSize=12;fontStyle=0;shape=mxgraph.aws4.group;grIcon=mxgraph.aws4.group_subnet;strokeColor=#879196;fillColor=none;verticalAlign=top;align=left;spacingLeft=30;fontColor=#879196;dashed=0;" parent="1" vertex="1">
          <mxGeometry x="70" y="340" width="410" height="220" as="geometry" />
        </mxCell>
        <mxCell id="N2PFwwYQiUMhbZ82afL--23" value="Public" style="text;html=1;strokeColor=none;fillColor=none;align=center;verticalAlign=middle;whiteSpace=wrap;rounded=0;" parent="1" vertex="1">
          <mxGeometry x="70" y="170" width="60" height="20" as="geometry" />
        </mxCell>
        <mxCell id="N2PFwwYQiUMhbZ82afL--24" value="Private" style="text;html=1;strokeColor=none;fillColor=none;align=center;verticalAlign=middle;whiteSpace=wrap;rounded=0;" parent="1" vertex="1">
          <mxGeometry x="80" y="370" width="60" height="20" as="geometry" />
        </mxCell>
        <mxCell id="N2PFwwYQiUMhbZ82afL--34" style="edgeStyle=none;rounded=0;orthogonalLoop=1;jettySize=auto;html=1;shadow=0;" parent="1" source="N2PFwwYQiUMhbZ82afL--26" target="N2PFwwYQiUMhbZ82afL--29" edge="1">
          <mxGeometry relative="1" as="geometry" />
        </mxCell>
        <mxCell id="N2PFwwYQiUMhbZ82afL--26" value="" style="sketch=0;outlineConnect=0;fontColor=#232F3E;gradientColor=none;fillColor=#A166FF;strokeColor=none;dashed=0;verticalLabelPosition=bottom;verticalAlign=top;align=center;html=1;fontSize=12;fontStyle=0;aspect=fixed;pointerEvents=1;shape=mxgraph.aws4.router;" parent="1" vertex="1">
          <mxGeometry x="566" y="286" width="28" height="28" as="geometry" />
        </mxCell>
        <mxCell id="N2PFwwYQiUMhbZ82afL--28" value="Router" style="text;html=1;strokeColor=none;fillColor=none;align=center;verticalAlign=middle;whiteSpace=wrap;rounded=0;" parent="1" vertex="1">
          <mxGeometry x="554" y="315" width="40" height="20" as="geometry" />
        </mxCell>
        <mxCell id="N2PFwwYQiUMhbZ82afL--43" style="edgeStyle=none;rounded=0;orthogonalLoop=1;jettySize=auto;html=1;shadow=0;entryX=1;entryY=0.5;entryDx=0;entryDy=0;entryPerimeter=0;" parent="1" source="N2PFwwYQiUMhbZ82afL--29" target="N2PFwwYQiUMhbZ82afL--45" edge="1">
          <mxGeometry relative="1" as="geometry">
            <Array as="points">
              <mxPoint x="520" y="261" />
            </Array>
          </mxGeometry>
        </mxCell>
        <mxCell id="N2PFwwYQiUMhbZ82afL--60" style="edgeStyle=none;rounded=0;orthogonalLoop=1;jettySize=auto;html=1;entryX=1;entryY=0;entryDx=0;entryDy=0;entryPerimeter=0;shadow=0;" parent="1" source="N2PFwwYQiUMhbZ82afL--29" target="N2PFwwYQiUMhbZ82afL--51" edge="1">
          <mxGeometry relative="1" as="geometry">
            <Array as="points">
              <mxPoint x="520" y="370" />
              <mxPoint x="370" y="370" />
            </Array>
          </mxGeometry>
        </mxCell>
        <mxCell id="N2PFwwYQiUMhbZ82afL--29" value="" style="sketch=0;outlineConnect=0;fontColor=#232F3E;gradientColor=none;fillColor=#A166FF;strokeColor=none;dashed=0;verticalLabelPosition=bottom;verticalAlign=top;align=center;html=1;fontSize=12;fontStyle=0;aspect=fixed;pointerEvents=1;shape=mxgraph.aws4.network_access_control_list;" parent="1" vertex="1">
          <mxGeometry x="507" y="288" width="26" height="26" as="geometry" />
        </mxCell>
        <mxCell id="N2PFwwYQiUMhbZ82afL--31" value="Network&lt;br&gt;Access&lt;br&gt;Control&lt;br&gt;List" style="text;html=1;strokeColor=none;fillColor=none;align=center;verticalAlign=middle;whiteSpace=wrap;rounded=0;" parent="1" vertex="1">
          <mxGeometry x="504" y="330" width="40" height="20" as="geometry" />
        </mxCell>
        <mxCell id="N2PFwwYQiUMhbZ82afL--38" style="edgeStyle=none;rounded=0;orthogonalLoop=1;jettySize=auto;html=1;shadow=0;" parent="1" target="N2PFwwYQiUMhbZ82afL--29" edge="1">
          <mxGeometry relative="1" as="geometry">
            <mxPoint x="443" y="299.37037037037044" as="sourcePoint" />
          </mxGeometry>
        </mxCell>
        <mxCell id="N2PFwwYQiUMhbZ82afL--40" value="Auto Scaling group" style="points=[[0,0],[0.25,0],[0.5,0],[0.75,0],[1,0],[1,0.25],[1,0.5],[1,0.75],[1,1],[0.75,1],[0.5,1],[0.25,1],[0,1],[0,0.75],[0,0.5],[0,0.25]];outlineConnect=0;gradientColor=none;html=1;whiteSpace=wrap;fontSize=12;fontStyle=0;shape=mxgraph.aws4.groupCenter;grIcon=mxgraph.aws4.group_auto_scaling_group;grStroke=1;strokeColor=#D86613;fillColor=none;verticalAlign=top;align=center;fontColor=#D86613;dashed=1;spacingTop=25;" parent="1" vertex="1">
          <mxGeometry x="120" y="170" width="230" height="130" as="geometry" />
        </mxCell>
        <mxCell id="N2PFwwYQiUMhbZ82afL--41" value="NAT&amp;nbsp;&lt;br&gt;Gateway" style="text;html=1;strokeColor=none;fillColor=none;align=center;verticalAlign=middle;whiteSpace=wrap;rounded=0;" parent="1" vertex="1">
          <mxGeometry x="368" y="294" width="40" height="20" as="geometry" />
        </mxCell>
        <mxCell id="N2PFwwYQiUMhbZ82afL--42" value="Auto Scaling group" style="points=[[0,0],[0.25,0],[0.5,0],[0.75,0],[1,0],[1,0.25],[1,0.5],[1,0.75],[1,1],[0.75,1],[0.5,1],[0.25,1],[0,1],[0,0.75],[0,0.5],[0,0.25]];outlineConnect=0;gradientColor=none;html=1;whiteSpace=wrap;fontSize=12;fontStyle=0;shape=mxgraph.aws4.groupCenter;grIcon=mxgraph.aws4.group_auto_scaling_group;grStroke=1;strokeColor=#D86613;fillColor=none;verticalAlign=top;align=center;fontColor=#D86613;dashed=1;spacingTop=25;" parent="1" vertex="1">
          <mxGeometry x="110" y="430" width="260" height="120" as="geometry" />
        </mxCell>
        <mxCell id="N2PFwwYQiUMhbZ82afL--44" value="Security group" style="fillColor=none;strokeColor=#DD3522;verticalAlign=top;fontStyle=0;fontColor=#DD3522;" parent="1" vertex="1">
          <mxGeometry x="140" y="220" width="190" height="80" as="geometry" />
        </mxCell>
        <mxCell id="N2PFwwYQiUMhbZ82afL--55" style="edgeStyle=none;rounded=0;orthogonalLoop=1;jettySize=auto;html=1;entryX=0.5;entryY=0;entryDx=0;entryDy=0;entryPerimeter=0;shadow=0;" parent="1" source="N2PFwwYQiUMhbZ82afL--45" target="N2PFwwYQiUMhbZ82afL--51" edge="1">
          <mxGeometry relative="1" as="geometry" />
        </mxCell>
        <mxCell id="N2PFwwYQiUMhbZ82afL--57" style="edgeStyle=none;rounded=0;orthogonalLoop=1;jettySize=auto;html=1;shadow=0;entryX=0;entryY=0.25;entryDx=0;entryDy=0;entryPerimeter=0;exitX=0;exitY=0.5;exitDx=0;exitDy=0;exitPerimeter=0;" parent="1" source="N2PFwwYQiUMhbZ82afL--45" target="N2PFwwYQiUMhbZ82afL--52" edge="1">
          <mxGeometry relative="1" as="geometry">
            <Array as="points">
              <mxPoint x="150" y="260" />
              <mxPoint x="150" y="507" />
            </Array>
          </mxGeometry>
        </mxCell>
        <mxCell id="N2PFwwYQiUMhbZ82afL--45" value="" style="sketch=0;points=[[0,0,0],[0.25,0,0],[0.5,0,0],[0.75,0,0],[1,0,0],[0,1,0],[0.25,1,0],[0.5,1,0],[0.75,1,0],[1,1,0],[0,0.25,0],[0,0.5,0],[0,0.75,0],[1,0.25,0],[1,0.5,0],[1,0.75,0]];outlineConnect=0;fontColor=#232F3E;gradientColor=#F78E04;gradientDirection=north;fillColor=#D05C17;strokeColor=#ffffff;dashed=0;verticalLabelPosition=bottom;verticalAlign=top;align=center;html=1;fontSize=12;fontStyle=0;aspect=fixed;shape=mxgraph.aws4.resourceIcon;resIcon=mxgraph.aws4.ec2;" parent="1" vertex="1">
          <mxGeometry x="220" y="241" width="38" height="38" as="geometry" />
        </mxCell>
        <mxCell id="N2PFwwYQiUMhbZ82afL--46" value="Application &lt;br&gt;Web&lt;br&gt;Servers" style="text;html=1;strokeColor=none;fillColor=none;align=center;verticalAlign=middle;whiteSpace=wrap;rounded=0;" parent="1" vertex="1">
          <mxGeometry x="146" y="250" width="74" height="20" as="geometry" />
        </mxCell>
        <mxCell id="N2PFwwYQiUMhbZ82afL--48" value="Security group" style="fillColor=none;strokeColor=#DD3522;verticalAlign=top;fontStyle=0;fontColor=#DD3522;" parent="1" vertex="1">
          <mxGeometry x="177" y="350" width="136" height="70" as="geometry" />
        </mxCell>
        <mxCell id="N2PFwwYQiUMhbZ82afL--49" value="Security group" style="fillColor=none;strokeColor=#DD3522;verticalAlign=top;fontStyle=0;fontColor=#DD3522;" parent="1" vertex="1">
          <mxGeometry x="130" y="480" width="230" height="60" as="geometry" />
        </mxCell>
        <mxCell id="N2PFwwYQiUMhbZ82afL--56" style="edgeStyle=none;rounded=0;orthogonalLoop=1;jettySize=auto;html=1;shadow=0;exitX=1;exitY=0.5;exitDx=0;exitDy=0;exitPerimeter=0;" parent="1" source="N2PFwwYQiUMhbZ82afL--51" target="N2PFwwYQiUMhbZ82afL--52" edge="1">
          <mxGeometry relative="1" as="geometry">
            <Array as="points">
              <mxPoint x="300" y="384" />
              <mxPoint x="300" y="514" />
            </Array>
          </mxGeometry>
        </mxCell>
        <mxCell id="N2PFwwYQiUMhbZ82afL--51" value="" style="sketch=0;points=[[0,0,0],[0.25,0,0],[0.5,0,0],[0.75,0,0],[1,0,0],[0,1,0],[0.25,1,0],[0.5,1,0],[0.75,1,0],[1,1,0],[0,0.25,0],[0,0.5,0],[0,0.75,0],[1,0.25,0],[1,0.5,0],[1,0.75,0]];outlineConnect=0;fontColor=#232F3E;gradientColor=#4D72F3;gradientDirection=north;fillColor=#3334B9;strokeColor=#ffffff;dashed=0;verticalLabelPosition=bottom;verticalAlign=top;align=center;html=1;fontSize=12;fontStyle=0;aspect=fixed;shape=mxgraph.aws4.resourceIcon;resIcon=mxgraph.aws4.rds;" parent="1" vertex="1">
          <mxGeometry x="226" y="370" width="28" height="28" as="geometry" />
        </mxCell>
        <mxCell id="N2PFwwYQiUMhbZ82afL--52" value="" style="sketch=0;points=[[0,0,0],[0.25,0,0],[0.5,0,0],[0.75,0,0],[1,0,0],[0,1,0],[0.25,1,0],[0.5,1,0],[0.75,1,0],[1,1,0],[0,0.25,0],[0,0.5,0],[0,0.75,0],[1,0.25,0],[1,0.5,0],[1,0.75,0]];outlineConnect=0;fontColor=#232F3E;gradientColor=#4D72F3;gradientDirection=north;fillColor=#3334B9;strokeColor=#ffffff;dashed=0;verticalLabelPosition=bottom;verticalAlign=top;align=center;html=1;fontSize=12;fontStyle=0;aspect=fixed;shape=mxgraph.aws4.resourceIcon;resIcon=mxgraph.aws4.rds;" parent="1" vertex="1">
          <mxGeometry x="210" y="500" width="28" height="28" as="geometry" />
        </mxCell>
        <mxCell id="N2PFwwYQiUMhbZ82afL--53" value="RDS" style="text;html=1;strokeColor=none;fillColor=none;align=center;verticalAlign=middle;whiteSpace=wrap;rounded=0;" parent="1" vertex="1">
          <mxGeometry x="220" y="398" width="40" height="20" as="geometry" />
        </mxCell>
        <mxCell id="N2PFwwYQiUMhbZ82afL--54" value="RDS Replicas" style="text;html=1;strokeColor=none;fillColor=none;align=center;verticalAlign=middle;whiteSpace=wrap;rounded=0;" parent="1" vertex="1">
          <mxGeometry x="163" y="510" width="40" height="18" as="geometry" />
        </mxCell>
        <mxCell id="N2PFwwYQiUMhbZ82afL--61" value="" style="sketch=0;outlineConnect=0;fontColor=#232F3E;gradientColor=none;fillColor=#A166FF;strokeColor=none;dashed=0;verticalLabelPosition=bottom;verticalAlign=top;align=center;html=1;fontSize=12;fontStyle=0;aspect=fixed;pointerEvents=1;shape=mxgraph.aws4.flow_logs;" parent="1" vertex="1">
          <mxGeometry x="750" y="204" width="40" height="40" as="geometry" />
        </mxCell>
        <mxCell id="N2PFwwYQiUMhbZ82afL--63" value="VPC Flow Logs" style="text;html=1;strokeColor=none;fillColor=none;align=center;verticalAlign=middle;whiteSpace=wrap;rounded=0;" parent="1" vertex="1">
          <mxGeometry x="750" y="170" width="40" height="20" as="geometry" />
        </mxCell>
        <mxCell id="MmVW4gUsqWOiBRn_JlBB-1" value="" style="sketch=0;outlineConnect=0;fontColor=#232F3E;gradientColor=none;fillColor=#A166FF;strokeColor=none;dashed=0;verticalLabelPosition=bottom;verticalAlign=top;align=center;html=1;fontSize=12;fontStyle=0;aspect=fixed;pointerEvents=1;shape=mxgraph.aws4.nat_gateway;" vertex="1" parent="1">
          <mxGeometry x="420" y="285" width="28" height="28" as="geometry" />
        </mxCell>
      </root>
    </mxGraphModel>
  </diagram>
</mxfile>
